<?xml version='1.0' encoding='utf-8'?>
<mxfile host="app.diagrams.net" agent="Mozilla/5.0 (Windows NT 10.0; Win64; x64) AppleWebKit/537.36 (KHTML, like Gecko) Chrome/138.0.0.0 Safari/537.36" version="28.0.7"><diagram name="Produktionsprozess_with_transitions" id="WWTvrGOokQbHTszkcPet"><mxGraphModel dx="1260" dy="484" grid="1" gridSize="10" guides="1" tooltips="1" connect="1" arrows="1" fold="1" page="1" pageScale="1" pageWidth="827" pageHeight="1169" math="0" shadow="0"><root><mxCell id="0" /><object label="Produktionsprozess_with_transitions" style="layer" id="kjXNbdknxgFZG0ey-R28-4"><mxCell parent="0" /></object><mxCell id="9w9Xh2U-Y_duheg7cGsQ-13" value="" style="edgeStyle=orthogonalEdgeStyle;rounded=0;orthogonalLoop=1;jettySize=auto;html=1;" parent="kjXNbdknxgFZG0ey-R28-4" source="9w9Xh2U-Y_duheg7cGsQ-14" target="9w9Xh2U-Y_duheg7cGsQ-16" edge="1"><mxGeometry relative="1" as="geometry" />
        </mxCell><mxCell id="9w9Xh2U-Y_duheg7cGsQ-14" value="Ingest" style="rounded=1;whiteSpace=wrap;html=1;" parent="kjXNbdknxgFZG0ey-R28-4" vertex="1"><mxGeometry x="200" y="400" width="80" height="40" as="geometry" />
        </mxCell><mxCell id="9w9Xh2U-Y_duheg7cGsQ-15" value="" style="edgeStyle=orthogonalEdgeStyle;rounded=0;orthogonalLoop=1;jettySize=auto;html=1;" parent="kjXNbdknxgFZG0ey-R28-4" source="9w9Xh2U-Y_duheg7cGsQ-16" target="9w9Xh2U-Y_duheg7cGsQ-18" edge="1"><mxGeometry relative="1" as="geometry" />
        </mxCell><mxCell id="9w9Xh2U-Y_duheg7cGsQ-16" value="Schnitt" style="rounded=1;whiteSpace=wrap;html=1;" parent="kjXNbdknxgFZG0ey-R28-4" vertex="1"><mxGeometry x="320" y="400" width="80" height="40" as="geometry" />
        </mxCell><mxCell id="9w9Xh2U-Y_duheg7cGsQ-17" value="" style="edgeStyle=orthogonalEdgeStyle;rounded=0;orthogonalLoop=1;jettySize=auto;html=1;" parent="kjXNbdknxgFZG0ey-R28-4" source="9w9Xh2U-Y_duheg7cGsQ-18" target="9w9Xh2U-Y_duheg7cGsQ-19" edge="1"><mxGeometry relative="1" as="geometry" />
        </mxCell><mxCell id="9w9Xh2U-Y_duheg7cGsQ-18" value="Vertonung" style="rounded=1;whiteSpace=wrap;html=1;" parent="kjXNbdknxgFZG0ey-R28-4" vertex="1"><mxGeometry x="440" y="400" width="80" height="40" as="geometry" />
        </mxCell><mxCell id="9w9Xh2U-Y_duheg7cGsQ-19" value="Ausstrahlung" style="rounded=1;whiteSpace=wrap;html=1;" parent="kjXNbdknxgFZG0ey-R28-4" vertex="1"><mxGeometry x="560" y="400" width="80" height="40" as="geometry" />
        </mxCell><mxCell id="9w9Xh2U-Y_duheg7cGsQ-20" value="" style="endArrow=classic;html=1;rounded=0;entryX=0;entryY=0.75;entryDx=0;entryDy=0;" parent="kjXNbdknxgFZG0ey-R28-4" target="9w9Xh2U-Y_duheg7cGsQ-14" edge="1"><mxGeometry width="50" height="50" relative="1" as="geometry">
            <mxPoint x="160" y="440" as="sourcePoint" />
            <mxPoint x="350" y="420" as="targetPoint" />
          </mxGeometry>
        </mxCell><mxCell id="9w9Xh2U-Y_duheg7cGsQ-21" value="" style="endArrow=classic;html=1;rounded=0;entryX=0;entryY=0.5;entryDx=0;entryDy=0;" parent="kjXNbdknxgFZG0ey-R28-4" target="9w9Xh2U-Y_duheg7cGsQ-14" edge="1"><mxGeometry width="50" height="50" relative="1" as="geometry">
            <mxPoint x="160" y="420" as="sourcePoint" />
            <mxPoint x="230" y="430" as="targetPoint" />
          </mxGeometry>
        </mxCell><mxCell id="9w9Xh2U-Y_duheg7cGsQ-22" value="" style="endArrow=classic;html=1;rounded=0;entryX=0;entryY=0.25;entryDx=0;entryDy=0;" parent="kjXNbdknxgFZG0ey-R28-4" target="9w9Xh2U-Y_duheg7cGsQ-14" edge="1"><mxGeometry width="50" height="50" relative="1" as="geometry">
            <mxPoint x="160" y="400" as="sourcePoint" />
            <mxPoint x="180" y="400" as="targetPoint" />
          </mxGeometry>
        </mxCell><mxCell id="9w9Xh2U-Y_duheg7cGsQ-23" value="Rohmaterial" style="text;html=1;align=center;verticalAlign=middle;whiteSpace=wrap;rounded=0;rotation=-90;" parent="kjXNbdknxgFZG0ey-R28-4" vertex="1"><mxGeometry x="120" y="415" width="70" height="10" as="geometry" />
        </mxCell><mxCell id="9w9Xh2U-Y_duheg7cGsQ-24" value="" style="endArrow=none;html=1;rounded=0;strokeWidth=2;strokeColor=#FF0000;" parent="kjXNbdknxgFZG0ey-R28-4" edge="1"><mxGeometry width="50" height="50" relative="1" as="geometry">
            <mxPoint x="200" y="445" as="sourcePoint" />
            <mxPoint x="200" y="395" as="targetPoint" />
          </mxGeometry>
        </mxCell><mxCell id="9w9Xh2U-Y_duheg7cGsQ-25" value="" style="endArrow=none;html=1;rounded=0;strokeWidth=2;strokeColor=#FF0000;" parent="kjXNbdknxgFZG0ey-R28-4" edge="1"><mxGeometry width="50" height="50" relative="1" as="geometry">
            <mxPoint x="319.81" y="445" as="sourcePoint" />
            <mxPoint x="319.81" y="395" as="targetPoint" />
          </mxGeometry>
        </mxCell><mxCell id="9w9Xh2U-Y_duheg7cGsQ-26" value="" style="endArrow=none;html=1;rounded=0;strokeWidth=2;strokeColor=#FF0000;" parent="kjXNbdknxgFZG0ey-R28-4" edge="1"><mxGeometry width="50" height="50" relative="1" as="geometry">
            <mxPoint x="440" y="445" as="sourcePoint" />
            <mxPoint x="440" y="395" as="targetPoint" />
          </mxGeometry>
        </mxCell><mxCell id="9w9Xh2U-Y_duheg7cGsQ-27" value="" style="endArrow=none;html=1;rounded=0;strokeWidth=2;strokeColor=#FF0000;" parent="kjXNbdknxgFZG0ey-R28-4" edge="1"><mxGeometry width="50" height="50" relative="1" as="geometry">
            <mxPoint x="560" y="445" as="sourcePoint" />
            <mxPoint x="560" y="395" as="targetPoint" />
          </mxGeometry>
        </mxCell><mxCell id="9w9Xh2U-Y_duheg7cGsQ-28" value="" style="endArrow=none;html=1;rounded=0;strokeWidth=2;strokeColor=#4D9900;fillColor=#d5e8d4;" parent="kjXNbdknxgFZG0ey-R28-4" edge="1"><mxGeometry width="50" height="50" relative="1" as="geometry">
            <mxPoint x="280" y="445" as="sourcePoint" />
            <mxPoint x="280" y="395" as="targetPoint" />
          </mxGeometry>
        </mxCell><mxCell id="9w9Xh2U-Y_duheg7cGsQ-29" value="" style="endArrow=none;html=1;rounded=0;strokeWidth=2;strokeColor=#4D9900;fillColor=#d5e8d4;" parent="kjXNbdknxgFZG0ey-R28-4" edge="1"><mxGeometry width="50" height="50" relative="1" as="geometry">
            <mxPoint x="400" y="445" as="sourcePoint" />
            <mxPoint x="400" y="395" as="targetPoint" />
          </mxGeometry>
        </mxCell><mxCell id="9w9Xh2U-Y_duheg7cGsQ-30" value="" style="endArrow=none;html=1;rounded=0;strokeWidth=2;strokeColor=#4D9900;fillColor=#d5e8d4;" parent="kjXNbdknxgFZG0ey-R28-4" edge="1"><mxGeometry width="50" height="50" relative="1" as="geometry">
            <mxPoint x="520" y="445" as="sourcePoint" />
            <mxPoint x="520" y="395" as="targetPoint" />
          </mxGeometry>
        </mxCell><mxCell id="9w9Xh2U-Y_duheg7cGsQ-102" value="" style="whiteSpace=wrap;html=1;aspect=fixed;strokeColor=none;fillColor=light-dark(#ff0000, #ededed);" parent="kjXNbdknxgFZG0ey-R28-4" vertex="1"><mxGeometry x="150" y="465" width="10" height="10" as="geometry" />
        </mxCell><mxCell id="9w9Xh2U-Y_duheg7cGsQ-103" value="" style="whiteSpace=wrap;html=1;aspect=fixed;strokeColor=none;fillColor=light-dark(#4D9900,#EDEDED);" parent="kjXNbdknxgFZG0ey-R28-4" vertex="1"><mxGeometry x="420" y="465" width="10" height="10" as="geometry" />
        </mxCell><mxCell id="9w9Xh2U-Y_duheg7cGsQ-104" value="Überprüfen eines Sicherheitsmerkmals" style="text;html=1;align=left;verticalAlign=middle;whiteSpace=wrap;rounded=0;" parent="kjXNbdknxgFZG0ey-R28-4" vertex="1"><mxGeometry x="160" y="465" width="210" height="10" as="geometry" />
        </mxCell><mxCell id="9w9Xh2U-Y_duheg7cGsQ-105" value="Hinzufügen eines Sicherheitsmerkmals" style="text;html=1;align=left;verticalAlign=middle;whiteSpace=wrap;rounded=0;" parent="kjXNbdknxgFZG0ey-R28-4" vertex="1"><mxGeometry x="430" y="465" width="210" height="10" as="geometry" />
        </mxCell></root></mxGraphModel></diagram></mxfile>